<svg id="euMsT7zjxYm1" xmlns="http://www.w3.org/2000/svg" xmlns:xlink="http://www.w3.org/1999/xlink" viewBox="0 0 314.2 314.2" shape-rendering="geometricPrecision" text-rendering="geometricPrecision"><ellipse rx="124.192584" ry="122.830823" transform="matrix(1.265373 0 0 1.278996 157.149943 157.100131)" fill="#fff" stroke-width="0"/><circle r="155.34926" transform="matrix(.924299 0 0 0.911632 157.79254 157.78318)" fill="none" stroke="#da5b6e" stroke-width="5" stroke-miterlimit="10"/><path d="M298.8,286.4c26.9-4.7,33.9-15.7,33.9-28.6s-8.3-25.7-42.7-28.5v-25h-16.8v24.3h-12.7v-24.3h-16.8v24.3h-28.8v14.3h22.7c.2,15.6.2,31.2.2,46.8v4c0,15.8,0,31.3-.2,46.6h-22.3v14.3h28.4v23.5h16.8v-23.5h2.6l10.1-.2v23.7h16.8v-24.9c42.9-4.7,50.6-21.1,50.6-34.4c0-18-11.8-29.2-41.8-32.4Zm-21.9-45.8c13.3,0,27.6,7.2,27.6,20.1s-15,22.4-28.6,22.4h-14.8c0-14.3,0-28.5.3-42.5Zm0,102h-15.5c-.3-16.2-.3-32.4-.3-48.7h16.2c16.2,0,32.8,7.2,32.8,24.6s-18.1,24.1-33.2,24.1Z" transform="translate(-120.7-134.1)" fill="#da5b6e"/></svg>
