<svg id="eSmc26lhx5Y1" xmlns="http://www.w3.org/2000/svg" xmlns:xlink="http://www.w3.org/1999/xlink" viewBox="0 0 1094.1 436.3" shape-rendering="geometricPrecision" text-rendering="geometricPrecision"><circle r="105.4" transform="matrix(.969639 0 0 0.969639 547.1 218.2)" fill="#fff"/><circle r="102.2" transform="matrix(.873586 0 0 0.888254 547.099993 218.2)" fill="none" stroke="#da5b6e" stroke-width="5" stroke-miterlimit="10"/><path d="M568.3,215c17.9-3.1,22.5-10.4,22.5-18.9s-5.5-17-28.3-18.9v-16.5h-11.1v16.1h-8.4v-16.1h-11.1v16.1h-19v9.5h15c.1,10.3.1,20.6.1,30.9v2.7c0,10.4,0,20.6-.1,30.7h-14.8v9.5h18.8v15.5h11.1v-15.5h8.4v15.6h11.1v-16.5c28.4-3.1,33.5-14,33.5-22.7c0-12-7.8-19.4-27.7-21.5Zm-14.4-30.3c8.8,0,18.2,4.8,18.2,13.3s-9.9,14.8-18.9,14.8h-9.8c0-9.4,0-18.8.2-28.1Zm0,67.5h-10.3c-.2-10.7-.2-21.4-.2-32.2h10.7c10.7,0,21.7,4.7,21.7,16.2s-12,16-21.9,16Z" transform="translate(-7.4 0)" fill="#da5b6e"/></svg>
